<mxfile host="app.diagrams.net" modified="2022-05-21T15:11:30.631Z" agent="5.0 (Windows NT 10.0; Win64; x64) AppleWebKit/537.36 (KHTML, like Gecko) Chrome/101.0.4951.67 Safari/537.36" etag="DeBrPwABlNrSnYuf8q5R" version="17.5.0" type="github">
  <diagram id="xSnsnVqX0OjivbWVeuSG" name="Page-1">
    <mxGraphModel dx="1038" dy="579" grid="1" gridSize="10" guides="1" tooltips="1" connect="1" arrows="1" fold="1" page="1" pageScale="1" pageWidth="827" pageHeight="1169" math="0" shadow="0">
      <root>
        <mxCell id="0" />
        <mxCell id="1" parent="0" />
        <mxCell id="IfioSOB7naQ3wVT4A3UR-4" value="0..*&amp;nbsp; &amp;nbsp; &amp;nbsp; &amp;nbsp; &amp;nbsp; &amp;nbsp;realizada&amp;nbsp; &amp;nbsp; &amp;nbsp; &amp;nbsp; &amp;nbsp; &amp;nbsp; &amp;nbsp;1" style="edgeStyle=orthogonalEdgeStyle;rounded=0;orthogonalLoop=1;jettySize=auto;html=1;entryX=0;entryY=0.5;entryDx=0;entryDy=0;fontSize=14;" edge="1" parent="1" source="IfioSOB7naQ3wVT4A3UR-1" target="IfioSOB7naQ3wVT4A3UR-3">
          <mxGeometry y="20" relative="1" as="geometry">
            <mxPoint as="offset" />
          </mxGeometry>
        </mxCell>
        <mxCell id="IfioSOB7naQ3wVT4A3UR-6" value="1&lt;br&gt;&lt;br&gt;&lt;br&gt;&lt;br&gt;&lt;br&gt;contém&lt;br&gt;&lt;br&gt;&lt;br&gt;&lt;br&gt;&lt;br&gt;1" style="edgeStyle=orthogonalEdgeStyle;rounded=0;orthogonalLoop=1;jettySize=auto;html=1;entryX=0.5;entryY=0;entryDx=0;entryDy=0;fontSize=13;" edge="1" parent="1" source="IfioSOB7naQ3wVT4A3UR-1" target="IfioSOB7naQ3wVT4A3UR-5">
          <mxGeometry x="0.0526" y="-30" relative="1" as="geometry">
            <mxPoint as="offset" />
          </mxGeometry>
        </mxCell>
        <mxCell id="IfioSOB7naQ3wVT4A3UR-1" value="Locação" style="swimlane;" vertex="1" parent="1">
          <mxGeometry x="200" y="60" width="180" height="120" as="geometry" />
        </mxCell>
        <mxCell id="IfioSOB7naQ3wVT4A3UR-10" value="data" style="rounded=0;whiteSpace=wrap;html=1;fontSize=14;strokeColor=none;" vertex="1" parent="IfioSOB7naQ3wVT4A3UR-1">
          <mxGeometry x="50" y="50" width="80" height="30" as="geometry" />
        </mxCell>
        <mxCell id="IfioSOB7naQ3wVT4A3UR-3" value="Locatário" style="swimlane;" vertex="1" parent="1">
          <mxGeometry x="570" y="60" width="180" height="120" as="geometry" />
        </mxCell>
        <mxCell id="IfioSOB7naQ3wVT4A3UR-11" value="nome&lt;br&gt;CPF/CNPJ&lt;br&gt;CNH&lt;br&gt;endereço&lt;br&gt;telefone&lt;br&gt;e-mail" style="rounded=0;whiteSpace=wrap;html=1;fontSize=14;strokeColor=none;" vertex="1" parent="IfioSOB7naQ3wVT4A3UR-3">
          <mxGeometry x="37.5" y="27.75" width="105" height="86.25" as="geometry" />
        </mxCell>
        <mxCell id="IfioSOB7naQ3wVT4A3UR-5" value="Veículo" style="swimlane;" vertex="1" parent="1">
          <mxGeometry x="200" y="370" width="180" height="120" as="geometry" />
        </mxCell>
        <mxCell id="IfioSOB7naQ3wVT4A3UR-9" value="disponível" style="rounded=0;whiteSpace=wrap;html=1;fontSize=14;strokeColor=none;" vertex="1" parent="IfioSOB7naQ3wVT4A3UR-5">
          <mxGeometry x="50" y="50" width="80" height="30" as="geometry" />
        </mxCell>
        <mxCell id="IfioSOB7naQ3wVT4A3UR-7" value="ItemLocação" style="swimlane;" vertex="1" parent="1">
          <mxGeometry x="380" y="220" width="180" height="120" as="geometry" />
        </mxCell>
        <mxCell id="IfioSOB7naQ3wVT4A3UR-2" value="placa&lt;br style=&quot;font-size: 14px;&quot;&gt;valor" style="rounded=0;whiteSpace=wrap;html=1;fontSize=14;strokeColor=none;" vertex="1" parent="IfioSOB7naQ3wVT4A3UR-7">
          <mxGeometry x="50" y="50" width="80" height="30" as="geometry" />
        </mxCell>
        <mxCell id="IfioSOB7naQ3wVT4A3UR-8" value="" style="endArrow=none;dashed=1;html=1;dashPattern=1 3;strokeWidth=2;rounded=0;entryX=0;entryY=0.5;entryDx=0;entryDy=0;" edge="1" parent="1" target="IfioSOB7naQ3wVT4A3UR-7">
          <mxGeometry width="50" height="50" relative="1" as="geometry">
            <mxPoint x="290" y="280" as="sourcePoint" />
            <mxPoint x="370" y="250" as="targetPoint" />
          </mxGeometry>
        </mxCell>
        <mxCell id="IfioSOB7naQ3wVT4A3UR-14" value="0..*&amp;nbsp; &amp;nbsp; &amp;nbsp; disponibilizado&amp;nbsp; &amp;nbsp; &amp;nbsp; &amp;nbsp; 1" style="edgeStyle=orthogonalEdgeStyle;rounded=0;orthogonalLoop=1;jettySize=auto;html=1;entryX=1;entryY=0.5;entryDx=0;entryDy=0;fontSize=14;startArrow=block;startFill=1;endArrow=none;endFill=0;" edge="1" parent="1" source="IfioSOB7naQ3wVT4A3UR-12" target="IfioSOB7naQ3wVT4A3UR-5">
          <mxGeometry y="-20" relative="1" as="geometry">
            <mxPoint as="offset" />
          </mxGeometry>
        </mxCell>
        <mxCell id="IfioSOB7naQ3wVT4A3UR-12" value="Locador" style="swimlane;" vertex="1" parent="1">
          <mxGeometry x="570" y="370" width="180" height="120" as="geometry" />
        </mxCell>
        <mxCell id="IfioSOB7naQ3wVT4A3UR-15" value="nome&lt;br&gt;CPF/CNPJ&lt;br&gt;endereço&lt;br&gt;telefone&lt;br&gt;e-mail" style="rounded=0;whiteSpace=wrap;html=1;fontSize=14;strokeColor=none;" vertex="1" parent="IfioSOB7naQ3wVT4A3UR-12">
          <mxGeometry x="30" y="30" width="120" height="80" as="geometry" />
        </mxCell>
      </root>
    </mxGraphModel>
  </diagram>
</mxfile>
